<?xml version="1.0" encoding="UTF-8" standalone="no"?>
<!-- Created with Inkscape (http://www.inkscape.org/) -->

<svg
   version="1.1"
   id="svg1"
   width="1073.2706"
   height="1106.8723"
   viewBox="0 0 1073.2706 1106.8723"
   xmlns="http://www.w3.org/2000/svg"
   xmlns:svg="http://www.w3.org/2000/svg">
  <defs
     id="defs1" />
  <g
     id="g1"
     transform="translate(-318.86894,-202.06616)">
    <g
       id="g9">
      <path
         style="fill:#f1cea0"
         d="m 1010.6667,1308.5411 c -62.98075,-4.1267 -123.009,-27.3412 -174.05008,-67.3095 -16.99272,-13.3064 -45.24206,-42.0262 -57.60554,-58.5649 -18.20246,-24.3496 -32.54226,-50.101 -43.06354,-77.3334 -2.40826,-6.2333 -4.73218,-11.7538 -5.16427,-12.2678 -0.43208,-0.514 -3.18508,-0.3603 -6.11777,0.3415 -31.0056,7.4197 -70.0481,9.3465 -180.79359,8.9227 -70.67672,-0.2706 -86.52371,-0.658 -88.33333,-2.1596 -2.0404,-1.6932 -2.20525,-26.1245 -2.20525,-326.83677 0,-282.12447 0.25482,-325.21829 1.93123,-326.60959 3.17516,-2.63514 162.14802,-1.0963 181.40211,1.75596 36.55659,5.41542 73.45479,14.43606 112.66666,27.54403 52.99656,17.716 85.55809,34.58453 112.83933,58.45653 39.38558,34.46371 70.72686,87.79032 83.83605,142.64547 2.24638,9.39994 2.48013,9.76695 5.83239,9.15755 45.32808,-8.24011 64.2981,-9.82644 92.2825,-7.71691 39.8515,3.00409 73.7651,12.17188 106.9582,28.91372 45.8659,23.13379 78.899,53.71585 108.0906,100.07059 9.4653,15.03039 9.5718,18.00815 0.8276,23.13 -28.0144,16.40919 -59.8588,33.2898 -61.5646,32.63523 -1.1223,-0.43067 -6.5968,-7.50293 -12.1654,-15.71614 -26.637,-39.28657 -57.3138,-63.59168 -98.537,-78.07027 -34.7935,-12.22038 -82.6563,-13.96886 -120.39967,-4.39836 L 958,767.49777 l -0.8478,29.25112 c -1.36164,46.97959 -8.63384,84.35836 -23.87859,122.7348 -20.78624,52.32631 -58.82774,98.68531 -106.60694,129.91571 -7.7,5.033 -15.15327,9.9715 -16.56281,10.9745 -2.49716,1.7768 -2.44609,2.1625 1.99387,15.0581 24.49501,71.1444 84.73556,128.711 155.4759,148.5745 23.19484,6.513 40.22337,8.4222 67.75967,7.5971 35.3548,-1.0593 61.8504,-7.4497 90.6667,-21.8678 22.3057,-11.1605 48.8439,-31.2478 61.1931,-46.3184 8.381,-10.2279 8.2098,-10.1828 28.8175,-7.581 9.9058,1.2507 18.7558,2.7345 19.6667,3.2975 1.2469,0.7706 1.656,9.1686 1.656,33.9949 v 32.9714 l -6.3333,6.0871 c -33.3338,32.0373 -84.4519,58.5905 -133,69.0867 -26.4473,5.7179 -63.686,8.8166 -87.3333,7.2671 z M 666.66667,1023.95 c 15.18829,-1.3612 33.35204,-4.2085 43,-6.7406 l 5,-1.3122 v -26.56942 c 0,-16.68463 0.77088,-32.16703 2.07206,-41.61527 11.96994,-86.91697 62.7716,-167.6057 137.5946,-218.54277 C 861.85,724.05264 868,719.31932 868,718.65126 c 0,-3.20739 -5.85525,-26.02754 -9.57513,-37.31793 C 846.20102,644.23211 827.8869,614.11967 802.06582,588.66667 775.75993,562.73576 741.53349,544.083 701.9426,534.10141 c -23.25936,-5.86411 -34.84358,-6.64692 -99.27593,-6.70867 l -62,-0.0594 -0.34209,247.33334 c -0.18815,136.03333 -0.057,248.08332 0.29148,249.00002 0.80728,2.1236 102.95529,2.3532 126.05061,0.2833 z M 813.51336,959 c 21.55603,-22.17117 36.80715,-47.74355 46.31965,-77.66667 7.08517,-22.28755 12.22826,-48.38655 12.11773,-61.49244 L 871.90149,814 860.28408,826.06564 c -31.66364,32.88532 -53.42167,76.75695 -60.80368,122.60103 -3.36626,20.90526 -3.62031,24.66666 -1.66604,24.66666 0.96984,0 8.03439,-6.45 15.699,-14.33333 z m 504.58184,313.5714 c -1.6997,-1.6997 -2.0952,-5.5249 -2.0952,-20.2666 0,-14.1334 -0.3556,-17.8159 -1.6,-16.5715 -1.1052,1.1053 -7.9184,1.6 -22.033,1.6 h -20.433 l -1.3947,-3.6666 c -0.8109,-2.1317 -1.2157,-11.363 -0.967,-22.0513 0.3386,-14.5559 0.8442,-18.6473 2.4277,-19.6462 3.0435,-1.92 40.4449,-1.6576 42.4,0.2975 1.1022,1.1022 1.6,7.8222 1.6,21.6 0,15.5555 0.3556,19.6444 1.6,18.4 1.0931,-1.0932 7.5556,-1.6 20.4,-1.6 12.8444,0 19.3069,0.5068 20.4,1.6 1.0931,1.0931 1.6,7.5555 1.6,20.4 0,12.8444 -0.5069,19.3068 -1.6,20.4 -1.0891,1.089 -7.4455,1.6 -19.9048,1.6 -14.8629,0 -18.6987,-0.394 -20.4,-2.0953 z m 4.149,-73.4383 c -1.7117,-1.7117 -1.0583,-65.119 0.6891,-66.8664 1.8525,-1.8525 64.559,-2.3046 67.4238,-0.4862 1.3072,0.8297 1.6096,8.6095 1.3334,34.3129 l -0.3572,33.2399 -34.0891,0.3554 c -18.749,0.1954 -34.499,-0.055 -35,-0.5556 z m -94.6886,-61.3553 c -0.4889,-0.4889 -0.8889,-19.0247 -0.8889,-41.1907 0,-35.52 0.2502,-40.3978 2.109,-41.1111 3.1804,-1.2204 76.9674,-0.9316 78.922,0.309 1.3044,0.8278 1.7447,10.1888 1.9002,40.3957 0.1113,21.6251 -0.2381,40.031 -0.7764,40.9021 -0.7203,1.1655 -11.4645,1.5839 -40.678,1.5839 -21.8345,0 -40.0991,-0.4 -40.5879,-0.8889 z m 111.8052,-23.5928 c -1.767,-1.2921 -2.0574,-4.1056 -1.7408,-16.8679 L 1338,1082 l 15.2209,-0.3791 c 8.3715,-0.2085 15.7752,0.1752 16.4527,0.8527 1.6042,1.6042 2.3994,28.5843 0.9133,30.9888 -1.4937,2.4169 -28.068,3.0318 -31.2261,0.7226 z M 1002,627.33574 c -20.83195,-3.30421 -53.32403,-13.78949 -50.73969,-16.37383 0.36195,-0.36194 9.52645,-0.72644 20.36555,-0.81 16.8784,-0.1301 20.4599,-0.53472 24.94893,-2.81858 2.8828,-1.46666 5.82111,-3.6238 6.52971,-4.79363 C 1012.0585,587.75572 946.76937,546.02444 850,504.67898 780.81823,475.12053 725.63587,458.14843 620.66667,434.14435 601.13077,429.67693 549.93843,419.49971 530,416.11949 c -89.00913,-15.08998 -144.66667,-14.22716 -144.66667,2.24267 0,5.53654 11.27854,15.02532 28.06604,23.61235 8.03035,4.10762 14.60063,8.11288 14.60063,8.90058 0,2.06521 -12.39769,0.29057 -30.19644,-4.32241 -30.33774,-7.86277 -52.86318,-18.23276 -66.12962,-30.44397 -10.10979,-9.30565 -13.50408,-15.80266 -12.68878,-24.28762 2.98048,-31.01844 64.3785,-39.3836 179.41646,-24.44455 23.83648,3.09545 21.91066,3.76918 25.58627,-8.95118 1.73355,-5.99938 4.57799,-13.64938 6.32098,-17 1.743,-3.35061 4.40487,-9.99203 5.91528,-14.75869 7.89374,-24.91173 29.86625,-55.93828 53.93581,-76.16072 27.80173,-23.35808 55.88483,-36.93042 93.84004,-45.35213 12.17682,-2.70186 17.55955,-3.10389 41.33333,-3.08717 24.75216,0.0174 28.97018,0.36768 44.66667,3.70912 49.3128,10.49763 88.27803,31.0852 121.43565,64.16144 29.40232,29.33014 47.24358,61.51816 55.84674,100.75495 3.39915,15.50268 4.1104,48.36856 1.41331,65.30784 -1.226,7.7 -2.74979,18.30411 -3.38621,23.5647 -0.63642,5.26058 -2.67319,15.09735 -4.52616,21.85948 -1.85297,6.76214 -3.04083,12.82585 -2.63968,13.47492 0.40115,0.64908 6.83294,4.23994 14.29286,7.9797 46.94906,23.53622 95.10419,56.23709 110.89679,75.30712 12.1049,14.61691 14.5277,26.33768 7.4609,36.09316 -2.1299,2.94021 -5.9869,6.65257 -8.571,8.24967 -10.337,6.38857 -36.8896,8.508 -60.2232,4.80699 z"
         id="path15" />
      <path
         style="fill:#eab066"
         d="M 993.68835,1306.5316 C 938.37599,1300.0949 884.11505,1277.2765 836,1240.2188 c -24.43644,-18.8207 -54.00246,-51.7735 -72.5724,-80.8855 -9.09636,-14.2603 -23.03094,-42.5082 -28.17695,-57.1197 -3.46277,-9.8322 -3.88644,-10.4158 -7.13271,-9.8262 -47.78662,8.6794 -52.64343,8.9362 -169.07103,8.9414 -100.42453,0 -102.98699,-0.059 -104.33333,-2.5745 -0.94055,-1.7574 -1.38025,-105.5433 -1.38025,-325.79333 0,-311.43147 0.0889,-323.29478 2.43832,-325.42099 2.19913,-1.99018 8.77163,-2.20395 67,-2.17918 85.28785,0.0363 108.84047,1.63417 149.89502,10.16944 65.82525,13.68512 131.2945,38.28216 168.96918,63.48234 31.18411,20.85871 62.00636,57.6283 81.85891,97.65409 7.58926,15.3011 19.68736,48.63203 22.5041,62 1.92547,9.13809 2.26235,9.34694 11.57338,7.17482 21.7727,-5.07922 36.28822,-6.44207 68.42776,-6.42463 24.9191,0.0135 34.8029,0.54031 44.6667,2.38061 81.312,15.17053 141.039,54.11991 184.307,120.19093 11.3142,17.27697 12.8932,20.95884 10.3188,24.0608 -0.9196,1.10801 -11.9366,7.78409 -24.4822,14.83572 -12.5457,7.05163 -26.1888,14.83728 -30.318,17.30145 -8.8016,5.25236 -12.2574,5.59037 -15.1346,1.4803 -1.1551,-1.65 -6.6887,-9.6 -12.2969,-17.66667 -37.5763,-54.04872 -94.3817,-83.35249 -161.5266,-83.32547 -19.5533,0.008 -38.49649,2.09642 -54.99207,6.06306 l -8.79121,2.11399 -0.85838,27.57421 c -2.47066,79.36674 -23.73298,143.14739 -65.02003,195.04085 -18.79217,23.61976 -50.40855,51.22306 -75.66932,66.06446 -8.38683,4.9276 -8.45633,5.0172 -7.67537,9.9011 1.23931,7.7502 12.10302,33.5886 20.0586,47.7076 19.30377,34.259 43.4747,60.3746 76.12491,82.2495 41.58785,27.8629 90.79673,40.8186 139.82727,36.8135 54.8227,-4.4783 96.9608,-23.5278 135.8508,-61.4147 l 17.056,-16.6161 18.2773,2.227 c 13.8827,1.6916 18.678,2.7741 19.944,4.5022 1.2211,1.667 1.6666,10.624 1.6666,33.5077 v 31.2325 l -5.6666,5.2985 c -44.1601,41.291 -101.0867,67.242 -164.8561,75.1527 -16.6021,2.0595 -57.1073,2.3027 -73.12225,0.439 z M 677.38401,1023.4314 c 17.3138,-2.1547 34.63187,-5.7691 36.61599,-7.6421 0.81084,-0.7654 1.1649,-8.9387 0.90352,-20.85731 -1.09412,-49.8905 9.12484,-95.30655 31.71079,-140.93199 16.78149,-33.89996 35.11024,-59.46439 61.69168,-86.04582 15.55257,-15.55258 30.02965,-27.49216 47.35842,-39.0576 9.33734,-6.23185 12.33163,-8.94433 12.33334,-11.17255 0.005,-6.17192 -9.49099,-39.60843 -15.22301,-53.60357 -28.46794,-69.50655 -85.83564,-117.4877 -157.88893,-132.05502 -22.16816,-4.48183 -38.76076,-5.39877 -97.69375,-5.39877 H 540 V 776 1025.3333 h 61.05068 c 44.83664,0 65.10949,-0.5051 76.33333,-1.9019 z M 812.47471,961 c 27.59958,-27.51372 46.52099,-64.19629 55.36135,-107.32798 2.72769,-13.30827 5.83018,-37.78356 4.90652,-38.70722 -2.49754,-2.49754 -23.45118,20.6765 -36.95491,40.87091 -11.3983,17.04581 -19.0702,32.16785 -26.26462,51.77006 -8.20689,22.36082 -16.41399,67.0609 -12.31263,67.0609 0.85523,0 7.72417,-6.15 15.26429,-13.66667 z m 505.74749,311.4444 c -1.661,-1.6609 -1.0097,-38.4569 0.7111,-40.1777 1.0832,-1.0832 7.2974,-1.6 19.2381,-1.6 14.2569,0 18.0398,0.4016 19.7334,2.0952 1.6873,1.6873 2.0952,5.4302 2.0952,19.2243 0,9.421 -0.3642,18.0781 -0.8093,19.2381 -0.6873,1.791 -3.7698,2.109 -20.4445,2.109 -10.7993,0 -20.0351,-0.4 -20.524,-0.8889 z m -45.3372,-36.7865 c -2.0249,-1.4807 -2.2483,-4.0773 -1.9215,-22.3334 l 0.3698,-20.6578 20.9352,-0.3669 c 18.9687,-0.3324 21.0357,-0.1445 22.0063,2 0.5892,1.3018 0.7684,11.0625 0.3982,21.6905 l -0.673,19.3235 -4,0.852 c -7.6735,1.6345 -34.6907,1.2647 -37.115,-0.5079 z m 50.0483,-37.2579 c -1.8315,-1.8315 -2.3124,-61.8809 -0.5181,-64.7054 1.601,-2.5202 65.2954,-3.1268 67.7768,-0.6455 2.4618,2.4618 2.6542,62.9047 0.208,65.3509 -1.1559,1.1559 -10.5185,1.6 -33.7333,1.6 -23.2148,0 -32.5774,-0.4441 -33.7334,-1.6 z m -94.7905,-61.5612 c -1.0762,-1.2968 -1.4142,-13.2101 -1.1632,-41 l 0.3537,-39.1721 H 1268 h 40.6667 l 0.3537,39.1721 c 0.251,27.7899 -0.087,39.7032 -1.1632,41 -1.2206,1.4707 -9.0082,1.8279 -39.8572,1.8279 -30.849,0 -38.6366,-0.3572 -39.8572,-1.8279 z m 110.8313,-23.7313 c -2.2661,-2.2662 -2.2307,-26.4578 0.043,-29.5676 1.4507,-1.9839 3.7147,-2.2503 16.3334,-1.9215 L 1370,1082 v 16 16 l -14.6925,0.3741 c -10.2922,0.2621 -15.184,-0.1173 -16.3334,-1.2666 z M 1002,624.80491 c -5.86667,-0.92011 -13.96667,-2.66518 -18,-3.87792 -4.03333,-1.21274 -10.78333,-3.1342 -15,-4.2699 -11.38035,-3.06515 -9.76461,-4.96386 3.33333,-3.9171 8.0006,0.63939 13.10902,0.32447 18.7346,-1.15494 13.72217,-3.60864 17.74447,-8.51917 14.12867,-17.24847 -6.27703,-15.1541 -53.59345,-45.47835 -117.21157,-75.11881 C 803.37544,479.79714 723.3149,453.67968 618.66667,431.36036 609.5,429.40529 595.4,426.37524 587.33333,424.6269 505.49397,406.88936 427.68804,398.53598 401.60056,404.68632 c -15.88946,3.74607 -20.54448,8.39352 -17.53645,17.50793 1.75571,5.31985 12.47841,14.01657 25.26922,20.49477 4.76667,2.41419 7.91086,4.64872 6.9871,4.96562 -2.34399,0.80412 -30.94923,-6.72501 -44.4457,-11.69845 -23.7701,-8.75928 -43.37269,-21.91893 -48.38524,-32.4821 -8.26347,-17.41397 4.94438,-31.405 35.49381,-37.5985 24.21276,-4.90882 82.81612,-3.65812 130.35003,2.78189 7.7,1.04322 17.9,2.27324 22.66667,2.73338 l 8.66667,0.83662 4.61743,-15.05758 c 2.78653,-9.08696 5.98211,-16.66593 8.05908,-19.11374 1.8929,-2.23089 4.53666,-7.65616 5.87501,-12.05616 2.97787,-9.79011 5.65375,-15.21087 15.13816,-30.66667 6.76606,-11.02595 27.47108,-36.66666 29.60855,-36.66666 0.5027,0 4.46625,-3.20279 8.80788,-7.1173 11.56936,-10.43118 30.10167,-22.11726 47.66007,-30.05341 36.46274,-16.48067 79.72664,-21.49875 122.65502,-14.22648 107.74674,18.2528 184.8856,101.83146 185.26407,200.73052 0.0331,8.63515 -0.95694,21.44907 -2.26625,29.33333 -1.27871,7.7 -2.26043,14.9 -2.1816,16 0.53743,7.49922 -0.19715,12.92875 -3.33722,24.66667 -1.96178,7.33333 -3.84731,14.60744 -4.19007,16.16468 -0.54185,2.46177 1.52485,3.92428 15.83334,11.20454 47.55166,24.19462 93.24826,54.9605 107.63916,72.4696 9.5723,11.64639 12.1507,16.8692 12.1507,24.6127 0,6.88766 -0.3271,7.58947 -6.3333,13.58839 -3.7606,3.75604 -8.4999,6.97853 -11.6667,7.9329 -7.6642,2.30971 -39.3462,2.81669 -52,0.8321 z"
         id="path14" />
      <path
         style="fill:#a3a3a3"
         d="M 993.68835,1306.5316 C 938.37599,1300.0949 884.11505,1277.2765 836,1240.2188 c -24.43644,-18.8207 -54.00246,-51.7735 -72.5724,-80.8855 -9.09636,-14.2603 -23.03094,-42.5082 -28.17695,-57.1197 -3.46277,-9.8322 -3.88644,-10.4158 -7.13271,-9.8262 -47.78662,8.6794 -52.64343,8.9362 -169.07103,8.9414 -100.42453,0 -102.98699,-0.059 -104.33333,-2.5745 -0.94055,-1.7574 -1.38025,-105.5433 -1.38025,-325.79333 0,-311.43147 0.0889,-323.29478 2.43832,-325.42099 2.19913,-1.99018 8.77163,-2.20395 67,-2.17918 85.28785,0.0363 108.84047,1.63417 149.89502,10.16944 65.82525,13.68512 131.2945,38.28216 168.96918,63.48234 31.18411,20.85871 62.00636,57.6283 81.85891,97.65409 7.58926,15.3011 19.68736,48.63203 22.5041,62 1.92547,9.13809 2.26235,9.34694 11.57338,7.17482 21.7727,-5.07922 36.28822,-6.44207 68.42776,-6.42463 24.9191,0.0135 34.8029,0.54031 44.6667,2.38061 81.312,15.17053 141.039,54.11991 184.307,120.19093 11.3142,17.27697 12.8932,20.95884 10.3188,24.0608 -0.9196,1.10801 -11.9366,7.78409 -24.4822,14.83572 -12.5457,7.05163 -26.1888,14.83728 -30.318,17.30145 -8.8016,5.25236 -12.2574,5.59037 -15.1346,1.4803 -1.1551,-1.65 -6.6887,-9.6 -12.2969,-17.66667 -37.5763,-54.04872 -94.3817,-83.35249 -161.5266,-83.32547 -19.5533,0.008 -38.49649,2.09642 -54.99207,6.06306 l -8.79121,2.11399 -0.85838,27.57421 c -2.47066,79.36674 -23.73298,143.14739 -65.02003,195.04085 -18.79217,23.61976 -50.40855,51.22306 -75.66932,66.06446 -8.38683,4.9276 -8.45633,5.0172 -7.67537,9.9011 1.23931,7.7502 12.10302,33.5886 20.0586,47.7076 19.30377,34.259 43.4747,60.3746 76.12491,82.2495 41.58785,27.8629 90.79673,40.8186 139.82727,36.8135 54.8227,-4.4783 96.9608,-23.5278 135.8508,-61.4147 l 17.056,-16.6161 18.2773,2.227 c 13.8827,1.6916 18.678,2.7741 19.944,4.5022 1.2211,1.667 1.6666,10.624 1.6666,33.5077 v 31.2325 l -5.6666,5.2985 c -44.1601,41.291 -101.0867,67.242 -164.8561,75.1527 -16.6021,2.0595 -57.1073,2.3027 -73.12225,0.439 z M 677.38401,1023.4314 c 17.3138,-2.1547 34.63187,-5.7691 36.61599,-7.6421 0.81084,-0.7654 1.1649,-8.9387 0.90352,-20.85731 -1.09412,-49.8905 9.12484,-95.30655 31.71079,-140.93199 16.78149,-33.89996 35.11024,-59.46439 61.69168,-86.04582 15.55257,-15.55258 30.02965,-27.49216 47.35842,-39.0576 9.33734,-6.23185 12.33163,-8.94433 12.33334,-11.17255 0.005,-6.17192 -9.49099,-39.60843 -15.22301,-53.60357 -28.46794,-69.50655 -85.83564,-117.4877 -157.88893,-132.05502 -22.16816,-4.48183 -38.76076,-5.39877 -97.69375,-5.39877 H 540 V 776 1025.3333 h 61.05068 c 44.83664,0 65.10949,-0.5051 76.33333,-1.9019 z M 812.47471,961 c 27.59958,-27.51372 46.52099,-64.19629 55.36135,-107.32798 2.72769,-13.30827 5.83018,-37.78356 4.90652,-38.70722 -2.49754,-2.49754 -23.45118,20.6765 -36.95491,40.87091 -11.3983,17.04581 -19.0702,32.16785 -26.26462,51.77006 -8.20689,22.36082 -16.41399,67.0609 -12.31263,67.0609 0.85523,0 7.72417,-6.15 15.26429,-13.66667 z m 505.74749,311.4444 c -1.661,-1.6609 -1.0097,-38.4569 0.7111,-40.1777 1.0832,-1.0832 7.2974,-1.6 19.2381,-1.6 14.2569,0 18.0398,0.4016 19.7334,2.0952 1.6873,1.6873 2.0952,5.4302 2.0952,19.2243 0,9.421 -0.3642,18.0781 -0.8093,19.2381 -0.6873,1.791 -3.7698,2.109 -20.4445,2.109 -10.7993,0 -20.0351,-0.4 -20.524,-0.8889 z m -45.3372,-36.7865 c -2.0249,-1.4807 -2.2483,-4.0773 -1.9215,-22.3334 l 0.3698,-20.6578 20.9352,-0.3669 c 18.9687,-0.3324 21.0357,-0.1445 22.0063,2 0.5892,1.3018 0.7684,11.0625 0.3982,21.6905 l -0.673,19.3235 -4,0.852 c -7.6735,1.6345 -34.6907,1.2647 -37.115,-0.5079 z m 50.0483,-37.2579 c -1.8315,-1.8315 -2.3124,-61.8809 -0.5181,-64.7054 1.601,-2.5202 65.2954,-3.1268 67.7768,-0.6455 2.4618,2.4618 2.6542,62.9047 0.208,65.3509 -1.1559,1.1559 -10.5185,1.6 -33.7333,1.6 -23.2148,0 -32.5774,-0.4441 -33.7334,-1.6 z m -94.7905,-61.5612 c -1.0762,-1.2968 -1.4142,-13.2101 -1.1632,-41 l 0.3537,-39.1721 H 1268 h 40.6667 l 0.3537,39.1721 c 0.251,27.7899 -0.087,39.7032 -1.1632,41 -1.2206,1.4707 -9.0082,1.8279 -39.8572,1.8279 -30.849,0 -38.6366,-0.3572 -39.8572,-1.8279 z m 110.8313,-23.7313 c -2.2661,-2.2662 -2.2307,-26.4578 0.043,-29.5676 1.4507,-1.9839 3.7147,-2.2503 16.3334,-1.9215 L 1370,1082 v 16 16 l -14.6925,0.3741 c -10.2922,0.2621 -15.184,-0.1173 -16.3334,-1.2666 z M 906,482.63316 c -77.24613,-35.93884 -154.38522,-61.13085 -265.33333,-86.65227 -33.85293,-7.7872 -84.34944,-17.79143 -110.92325,-21.97581 -8.91345,-1.40354 -9.12972,-2.49501 -3.77578,-19.05638 2.60551,-8.05967 5.6486,-15.41025 6.7624,-16.33463 4.82423,-4.00376 27.18386,-2.56137 75.26996,4.85554 74.64072,11.51276 168.30767,36.96723 237.05628,64.42124 34.7713,13.88554 92.99599,42.27364 97.96435,47.76361 1.91763,2.11896 1.93461,3.26402 0.17322,11.68073 -3.68843,17.62492 -7.11118,27.34209 -9.58364,27.2079 -1.25228,-0.068 -13.67688,-5.42743 -27.61021,-11.90993 z m 2.67455,-74.62041 c -1.07776,-1.74385 2.06251,-22.8693 3.72055,-25.02919 1.02155,-1.33075 1.70394,-1.34127 3.25952,-0.0503 1.56171,1.29611 1.78012,3.53434 1.059,10.85259 -0.49967,5.07084 -1.44979,10.64345 -2.11139,12.38358 -1.22609,3.22486 -4.45355,4.22847 -5.92768,1.84327 z m -46.58243,-17.19704 c -0.45275,-0.73256 -0.42014,-7.06578 0.0725,-14.07382 C 862.95773,365.45869 863.34836,364 865.57678,364 c 2.32734,0 2.48794,1.02618 2.13653,13.65103 -0.319,11.4605 -0.73445,13.71888 -2.58899,14.07383 -1.21496,0.23253 -2.57945,-0.17658 -3.0322,-0.90915 z M 892,343.41202 c 0,-13.65042 1.14946,-17.46256 4.31187,-14.30015 1.69735,1.69735 3.0462,19.95183 1.8318,24.79041 -0.56255,2.24136 -1.77698,3.43105 -3.50241,3.43105 -2.46415,0 -2.64126,-0.93352 -2.64126,-13.92131 z M 622.21868,323.42241 c -0.75978,-1.97996 7.67261,-16.06994 11.4929,-19.20386 2.32397,-1.90644 4.95509,-1.08816 4.95509,1.54104 0,2.72863 -11.94977,19.57374 -13.88544,19.57374 -1.00609,0 -2.15924,-0.85991 -2.56255,-1.91092 z m -24.83954,-7.75574 c 0.0672,-4.39869 10.77864,-18.91219 14.33713,-19.42607 4.73455,-0.68372 3.61568,3.1077 -3.8996,13.21422 -7.02122,9.44211 -10.51863,11.52358 -10.43753,6.21185 z m -28.88398,-1.63282 c -1.39416,-3.63312 10.42061,-20.70052 14.32976,-20.70052 4.12162,0 2.86666,4.05616 -4.22842,13.66667 -6.75891,9.15515 -8.75417,10.54451 -10.10134,7.03385 z m 44.15689,-40.72417 c -1.6621,-2.68933 10.79458,-15.97635 14.97796,-15.97635 3.57531,0 1.45451,5.01199 -4.67581,11.05013 -6.41332,6.31688 -8.75164,7.43501 -10.30215,4.92622 z"
         id="path13" />
      <path
         style="fill:#606060"
         d="m 999.33333,1305.7338 c -12.30008,-1.1176 -39.13116,-6.1813 -52.20446,-9.8522 -61.31434,-17.2168 -120.82765,-56.8029 -161.18562,-107.2149 -18.74371,-23.4132 -36.50764,-54.2986 -47.92977,-83.3334 -2.74065,-6.9666 -5.49318,-13.215 -6.11674,-13.8851 -0.68024,-0.7311 -5.55296,-0.3352 -12.1819,0.9898 -35.05091,7.0062 -46.59888,7.5524 -159.78151,7.5574 -77.61255,0 -102.45001,-0.3787 -103.66666,-1.5954 -1.23566,-1.2357 -1.6,-75.3081 -1.6,-325.28642 V 449.42716 l 2.85117,-1.5259 c 4.61633,-2.47059 151.61249,-0.7809 173.14883,1.99031 74.84561,9.63082 163.60134,39.09904 209.48465,69.55201 47.0387,31.21981 86.41277,90.37251 103.30565,155.19879 1.81194,6.9533 3.80343,13.15137 4.42554,13.77348 0.62211,0.62211 3.45305,0.47358 6.29097,-0.33007 22.44793,-6.35683 72.53022,-9.79533 99.82652,-6.8538 63.5818,6.85178 121.3441,33.87407 164,76.72228 19.4625,19.55021 48.2429,59.64764 47.1002,65.62104 -0.4886,2.55472 -61.2366,37.73047 -65.191,37.7485 -1.1892,0.005 -6.624,-6.74631 -12.6033,-15.65713 -20.0256,-29.84421 -51.09,-57.24848 -79.52,-70.15085 -26.7229,-12.12762 -48.0647,-16.88727 -79.7859,-17.79386 -24.7585,-0.7076 -45.16396,1.23609 -62.66667,5.96922 l -8.66666,2.34366 -0.94555,26.4176 c -2.18431,61.0272 -13.17999,107.49536 -35.91962,151.79766 -21.52205,41.93015 -57.69353,81.0465 -98.46817,106.485 -16.23798,10.1305 -15.98834,9.8583 -14.38572,15.6857 5.32376,19.3583 20.52042,49.7782 35.42524,70.9125 11.33838,16.0773 38.54509,43.3049 54.97639,55.0187 14.38781,10.257 44.81945,25.7374 60.65076,30.8526 50.1662,16.2094 105.2612,14.5854 152.797,-4.5037 27.4768,-11.034 50.0741,-26.2338 72.0759,-48.4811 l 14.5031,-14.6649 18.2596,2.265 c 10.5739,1.3117 18.6939,2.9487 19.2916,3.8893 0.5676,0.8933 1.0412,15.1932 1.0524,31.7777 0.024,35.2381 1.423,31.5114 -17.8588,47.5666 -16.9814,14.1399 -33.1119,24.4916 -54.6072,35.0443 -42.4453,20.8378 -87.2626,30.8272 -136.1405,30.3447 -12.4885,-0.1232 -25.1064,-0.4422 -28.03977,-0.7087 z M 674.38589,1025.2287 c 14.38139,-1.5973 36.67865,-5.906 39.90415,-7.7111 1.78059,-0.9965 2.12482,-5.4421 2.34939,-30.34256 0.18038,-20.00044 0.99044,-33.77293 2.57597,-43.79625 C 732.94982,856.55352 783.32618,779.00276 859,728.19053 c 12.22672,-8.2098 12.04961,-7.39737 6.43602,-29.52386 -10.39108,-40.95741 -26.53996,-71.86063 -53.82293,-102.998 -27.02046,-30.83777 -71.99056,-55.86006 -116.72728,-64.94946 -22.49748,-4.57094 -41.04804,-5.52362 -99.55248,-5.11262 l -56,0.39341 -0.34208,248.66667 c -0.18814,136.76666 -0.057,249.41663 0.29149,250.33333 0.82503,2.1703 115.86764,2.365 135.10315,0.2287 z m 136.48283,-60.89537 c 16.7869,-16.173 27.61229,-31.08347 38.4794,-53 13.42185,-27.06888 21.46536,-56.31295 24.66257,-89.66666 0.77884,-8.125 0.60687,-9.66667 -1.07826,-9.66667 -2.98315,0 -24.37641,23.19569 -34.58479,37.49864 -23.42924,32.82667 -39.63957,76.48017 -43.13794,116.16803 -1.20888,13.71433 0.16128,13.59766 15.65902,-1.33334 z m 508.68688,306.77777 c -0.4889,-0.4889 -0.8889,-9.1247 -0.8889,-19.1907 0,-15.4588 0.3276,-18.4275 2.109,-19.1111 4.0588,-1.5575 34.6084,-0.8919 36.291,0.7907 1.6825,1.6826 2.3481,32.2322 0.7906,36.291 -0.6836,1.7814 -3.6522,2.109 -19.1111,2.109 -10.0659,0 -18.7018,-0.4 -19.1906,-0.8889 z m -44.5898,-36.0566 c -3.0176,-0.5791 -3.0322,-0.6931 -2.6667,-20.8184 l 0.3676,-20.2361 20.3333,-0.3681 20.3333,-0.368 v 20.5086 20.5086 l -9,0.8499 c -9.6529,0.9117 -24.4189,0.8732 -29.3675,-0.077 z m 49.172,-38.2218 c -1.0668,-1.2854 -1.4147,-10.9563 -1.1633,-32.3333 l 0.3588,-30.4994 31.7675,-0.6667 c 17.472,-0.3666 32.622,-0.1868 33.6666,0.3996 2.5504,1.4319 2.831,60.8021 0.2993,63.3338 -2.4717,2.4716 -62.864,2.254 -64.9289,-0.234 z m -94.6623,-61.328 c -1.075,-1.2954 -1.4143,-12.8633 -1.1632,-39.6667 L 1228.6667,1058 H 1268 h 39.3333 l 0.3542,38.5751 c 0.2752,29.9727 -0.022,38.814 -1.3333,39.6462 -0.9282,0.5892 -18.2641,1.0804 -38.5243,1.0916 -29.602,0.016 -37.1348,-0.3387 -38.3544,-1.8082 z m 110.0873,-24.4606 c -1.1559,-4.2616 -0.1415,-25.6654 1.2839,-27.0908 0.831,-0.831 6.6937,-1.2342 14.6042,-1.0042 l 13.2158,0.3842 V 1098 v 14.6667 l -14.2295,0.3774 c -12.7086,0.337 -14.2985,0.1232 -14.8744,-2 z M 906,482.63316 C 877.63325,469.4355 837.72681,453.21051 806.6469,442.2386 736.53225,417.48654 614.00597,387.29988 529.57383,373.97642 c -3.16773,-0.49987 -6.04903,-1.66333 -6.40289,-2.58547 -1.21162,-3.15744 8.7413,-31.17827 11.84713,-33.35368 3.66523,-2.56723 10.79496,-2.56574 33.18844,0.007 88.1237,10.12405 194.50446,36.96294 276.84977,69.84665 37.26272,14.88046 95.04196,43.31 97.55139,47.99891 2.18436,4.08151 -6.51965,38.89465 -9.66413,38.65333 -0.88561,-0.068 -13.01021,-5.42743 -26.94354,-11.90993 z m 2.67455,-74.62041 c -1.07776,-1.74385 2.06251,-22.8693 3.72055,-25.02919 1.02155,-1.33075 1.70394,-1.34127 3.25952,-0.0503 1.56171,1.29611 1.78012,3.53434 1.059,10.85259 -0.49967,5.07084 -1.44979,10.64345 -2.11139,12.38358 -1.22609,3.22486 -4.45355,4.22847 -5.92768,1.84327 z m -46.58243,-17.19704 c -0.45275,-0.73256 -0.42014,-7.06578 0.0725,-14.07382 C 862.95773,365.45869 863.34836,364 865.57678,364 c 2.32734,0 2.48794,1.02618 2.13653,13.65103 -0.319,11.4605 -0.73445,13.71888 -2.58899,14.07383 -1.21496,0.23253 -2.57945,-0.17658 -3.0322,-0.90915 z M 892,343.41202 c 0,-13.65042 1.14946,-17.46256 4.31187,-14.30015 1.69735,1.69735 3.0462,19.95183 1.8318,24.79041 -0.56255,2.24136 -1.77698,3.43105 -3.50241,3.43105 -2.46415,0 -2.64126,-0.93352 -2.64126,-13.92131 z M 622.21868,323.42241 c -0.75978,-1.97996 7.67261,-16.06994 11.4929,-19.20386 2.32397,-1.90644 4.95509,-1.08816 4.95509,1.54104 0,2.72863 -11.94977,19.57374 -13.88544,19.57374 -1.00609,0 -2.15924,-0.85991 -2.56255,-1.91092 z m -24.83954,-7.75574 c 0.0672,-4.39869 10.77864,-18.91219 14.33713,-19.42607 4.73455,-0.68372 3.61568,3.1077 -3.8996,13.21422 -7.02122,9.44211 -10.51863,11.52358 -10.43753,6.21185 z m -28.88398,-1.63282 c -1.39416,-3.63312 10.42061,-20.70052 14.32976,-20.70052 4.12162,0 2.86666,4.05616 -4.22842,13.66667 -6.75891,9.15515 -8.75417,10.54451 -10.10134,7.03385 z m 44.15689,-40.72417 c -1.6621,-2.68933 10.79458,-15.97635 14.97796,-15.97635 3.57531,0 1.45451,5.01199 -4.67581,11.05013 -6.41332,6.31688 -8.75164,7.43501 -10.30215,4.92622 z"
         id="path12" />
      <path
         style="fill:#9e4839"
         d="m 996.95614,1303.8445 c -53.37539,-5.1433 -108.17505,-27.4591 -156.28947,-63.6449 -16.63929,-12.5141 -44.94529,-40.8133 -57.54677,-57.5329 -19.20753,-25.4846 -35.99413,-55.8738 -45.18089,-81.792 -2.03888,-5.7522 -4.61911,-10.8085 -5.73382,-11.2363 -1.11472,-0.4277 -7.16691,0.2499 -13.44931,1.5058 -32.12145,6.4214 -35.02017,6.5592 -150.61413,7.1577 -90.28464,0.4675 -110.05804,0.2537 -110.97958,-1.1999 -0.61674,-0.9727 -1.13052,-146.7452 -1.14175,-323.93874 -0.018,-284.62846 0.21242,-322.36331 1.9777,-323.82836 3.17104,-2.63174 145.79978,-1.00052 170.66855,1.9519 66.52352,7.89767 151.24959,34.30323 197.99883,61.70791 19.21796,11.2657 30.25566,20.14241 47.9703,38.5786 32.24922,33.56278 56.818,79.14283 68.08304,126.30779 1.38719,5.80795 3.13461,11.17235 3.88315,11.92089 0.92576,0.92576 4.45819,0.63936 11.04617,-0.89559 29.49343,-6.87178 70.23764,-9.21729 99.37274,-5.72057 82.5265,9.90462 149.8771,51.02637 194.6565,118.84994 4.3705,6.61967 9.0055,14.08385 10.2999,16.58707 2.2925,4.43304 2.2823,4.60909 -0.3921,6.77463 -1.5101,1.22283 -8.9346,5.69262 -16.4988,9.93288 -7.5642,4.24025 -20.4604,11.52557 -28.6582,16.1896 -8.1978,4.66403 -15.5324,8.48005 -16.299,8.48005 -0.7665,0 -5.1057,-5.55 -9.6426,-12.33333 -27.4983,-41.11434 -59.4519,-66.6231 -102.0135,-81.4378 -15.6126,-5.43439 -29.4564,-8.22478 -51.6749,-10.41572 -13.7089,-1.35181 -19.2353,-1.25605 -36.7982,0.63767 -20.12979,2.17049 -42.17937,6.52855 -44.43291,8.78209 -0.61521,0.61521 -1.32515,12.13948 -1.57764,25.60949 -0.5249,28.00185 -2.12162,44.03858 -6.77916,68.08648 -9.89052,51.06697 -29.68192,94.8506 -59.24775,131.07112 -18.28766,22.4039 -48.12143,48.0915 -74.35802,64.0241 -4.61751,2.8041 -8.6947,5.5825 -9.06043,6.1742 -1.68856,2.7322 8.58797,29.3474 18.84738,48.8129 39.78663,75.4883 112.70581,122.8906 194.60853,126.5084 64.7811,2.8615 122.9397,-20.0231 167.8468,-66.0453 6.5157,-6.6775 12.5406,-12.141 13.3887,-12.141 5.3393,0 33.5063,4.3763 34.0734,5.294 0.3801,0.6151 0.6511,14.9191 0.6023,31.7868 l -0.089,30.6686 -7.7421,7.1253 c -57.7575,53.1557 -143.3142,79.9053 -229.12416,71.6365 z m -300.04061,-280.223 c 23.72655,-5.0191 22.08782,-3.1974 21.0308,-23.3793 -3.74679,-71.53841 22.6019,-148.65088 70.58856,-206.58554 20.56756,-24.83137 45.35669,-47.18681 70.48974,-63.56936 6.28633,-4.09763 11.68015,-8.19358 11.98627,-9.1021 0.82304,-2.44268 -4.97443,-27.85373 -9.52739,-41.75979 -8.2861,-25.30813 -22.87331,-52.50916 -38.84161,-72.42866 -34.76784,-43.3708 -78.50245,-68.76329 -137.30857,-79.72193 -11.04161,-2.05763 -21.30512,-2.36352 -80,-2.38431 L 538,524.66667 l -0.34207,250 c -0.18814,137.5 -0.0393,250.79593 0.3307,251.76883 0.5511,1.449 13.51298,1.6653 71.6754,1.1961 70.13424,-0.5658 71.20137,-0.6148 87.2515,-4.0101 z m 104.64884,-48.52135 c 35.24503,-28.33911 60.77004,-74.58272 70.39263,-127.53022 3.3204,-18.27021 4.16868,-37.01735 1.7138,-37.87514 -2.49858,-0.87306 -21.89793,19.44235 -33.46497,35.04521 -25.90307,34.94082 -42.95171,78.91481 -46.39704,119.67302 -1.26985,15.0223 0.0692,16.86746 7.75558,10.68713 z M 1320,1252.8038 v -17.8629 l 17,-0.5641 c 11.0199,-0.3657 17.5194,-0.062 18.4764,0.8629 0.9964,0.963 1.2692,6.9541 0.839,18.427 l -0.6373,17 H 1337.839 1320 Z M 1273.3333,1214 v -19.3333 H 1292.6667 1312 V 1214 v 19.3333 h -19.3333 -19.3334 z m 52.4655,-17.6871 c -1.8059,-1.1528 -2.4548,-57.256 -0.694,-60.0047 0.836,-1.3051 8.2246,-1.6099 32.3228,-1.3334 l 31.2391,0.3585 0.3598,29.1649 c 0.2515,20.3902 -0.098,29.7169 -1.1633,31 -1.21,1.458 -7.5865,1.8309 -31.0265,1.8147 -16.2268,-0.011 -30.1939,-0.4612 -31.0379,-1 z m -95.8626,-61.9985 c -0.3558,-0.9271 -0.487,-18.1771 -0.2915,-38.3333 l 0.3553,-36.6478 38.3333,-0.3537 38.3334,-0.3538 v 37.8538 37.8537 l -4.1667,0.8334 c -2.2917,0.4583 -19.4105,0.8333 -38.0418,0.8333 -26.073,0 -34.0242,-0.3882 -34.522,-1.6856 z m 111.3971,-36.3627 v -14.0483 l 13,0.3817 13,0.3816 0.38,13.6666 0.38,13.6667 h -13.38 -13.38 z M 906,482.63316 C 877.63325,469.4355 837.72681,453.21051 806.6469,442.2386 736.53225,417.48654 614.00597,387.29988 529.57383,373.97642 c -3.16773,-0.49987 -6.04903,-1.66333 -6.40289,-2.58547 -1.21162,-3.15744 8.7413,-31.17827 11.84713,-33.35368 3.66523,-2.56723 10.79496,-2.56574 33.18844,0.007 88.1237,10.12405 194.50446,36.96294 276.84977,69.84665 37.26272,14.88046 95.04196,43.31 97.55139,47.99891 2.18436,4.08151 -6.51965,38.89465 -9.66413,38.65333 -0.88561,-0.068 -13.01021,-5.42743 -26.94354,-11.90993 z m 2.67455,-74.62041 c -1.07776,-1.74385 2.06251,-22.8693 3.72055,-25.02919 1.02155,-1.33075 1.70394,-1.34127 3.25952,-0.0503 1.56171,1.29611 1.78012,3.53434 1.059,10.85259 -0.49967,5.07084 -1.44979,10.64345 -2.11139,12.38358 -1.22609,3.22486 -4.45355,4.22847 -5.92768,1.84327 z m -46.58243,-17.19704 c -0.45275,-0.73256 -0.42014,-7.06578 0.0725,-14.07382 C 862.95773,365.45869 863.34836,364 865.57678,364 c 2.32734,0 2.48794,1.02618 2.13653,13.65103 -0.319,11.4605 -0.73445,13.71888 -2.58899,14.07383 -1.21496,0.23253 -2.57945,-0.17658 -3.0322,-0.90915 z M 892,343.41202 c 0,-13.65042 1.14946,-17.46256 4.31187,-14.30015 1.69735,1.69735 3.0462,19.95183 1.8318,24.79041 -0.56255,2.24136 -1.77698,3.43105 -3.50241,3.43105 -2.46415,0 -2.64126,-0.93352 -2.64126,-13.92131 z M 622.21868,323.42241 c -0.75978,-1.97996 7.67261,-16.06994 11.4929,-19.20386 2.32397,-1.90644 4.95509,-1.08816 4.95509,1.54104 0,2.72863 -11.94977,19.57374 -13.88544,19.57374 -1.00609,0 -2.15924,-0.85991 -2.56255,-1.91092 z m -24.83954,-7.75574 c 0.0672,-4.39869 10.77864,-18.91219 14.33713,-19.42607 4.73455,-0.68372 3.61568,3.1077 -3.8996,13.21422 -7.02122,9.44211 -10.51863,11.52358 -10.43753,6.21185 z m -28.88398,-1.63282 c -1.39416,-3.63312 10.42061,-20.70052 14.32976,-20.70052 4.12162,0 2.86666,4.05616 -4.22842,13.66667 -6.75891,9.15515 -8.75417,10.54451 -10.10134,7.03385 z m 44.15689,-40.72417 c -1.6621,-2.68933 10.79458,-15.97635 14.97796,-15.97635 3.57531,0 1.45451,5.01199 -4.67581,11.05013 -6.41332,6.31688 -8.75164,7.43501 -10.30215,4.92622 z"
         id="path11" />
      <path
         style="fill:#76071d"
         d="m 996.95614,1303.8445 c -53.37539,-5.1433 -108.17505,-27.4591 -156.28947,-63.6449 -16.63929,-12.5141 -44.94529,-40.8133 -57.54677,-57.5329 -19.20753,-25.4846 -35.99413,-55.8738 -45.18089,-81.792 -2.03888,-5.7522 -4.61911,-10.8085 -5.73382,-11.2363 -1.11472,-0.4277 -7.16691,0.2499 -13.44931,1.5058 -32.12145,6.4214 -35.02017,6.5592 -150.61413,7.1577 -90.28464,0.4675 -110.05804,0.2537 -110.97958,-1.1999 -0.61674,-0.9727 -1.13052,-146.7452 -1.14175,-323.93874 -0.018,-284.62846 0.21242,-322.36331 1.9777,-323.82836 3.17104,-2.63174 145.79978,-1.00052 170.66855,1.9519 66.52352,7.89767 151.24959,34.30323 197.99883,61.70791 19.21796,11.2657 30.25566,20.14241 47.9703,38.5786 32.24922,33.56278 56.818,79.14283 68.08304,126.30779 1.38719,5.80795 3.13461,11.17235 3.88315,11.92089 0.92576,0.92576 4.45819,0.63936 11.04617,-0.89559 29.49343,-6.87178 70.23764,-9.21729 99.37274,-5.72057 82.5265,9.90462 149.8771,51.02637 194.6565,118.84994 4.3705,6.61967 9.0055,14.08385 10.2999,16.58707 2.2925,4.43304 2.2823,4.60909 -0.3921,6.77463 -1.5101,1.22283 -8.9346,5.69262 -16.4988,9.93288 -7.5642,4.24025 -20.4604,11.52557 -28.6582,16.1896 -8.1978,4.66403 -15.5324,8.48005 -16.299,8.48005 -0.7665,0 -5.1057,-5.55 -9.6426,-12.33333 -27.4983,-41.11434 -59.4519,-66.6231 -102.0135,-81.4378 -15.6126,-5.43439 -29.4564,-8.22478 -51.6749,-10.41572 -13.7089,-1.35181 -19.2353,-1.25605 -36.7982,0.63767 -20.12979,2.17049 -42.17937,6.52855 -44.43291,8.78209 -0.61521,0.61521 -1.32515,12.13948 -1.57764,25.60949 -0.5249,28.00185 -2.12162,44.03858 -6.77916,68.08648 -9.89052,51.06697 -29.68192,94.8506 -59.24775,131.07112 -18.28766,22.4039 -48.12143,48.0915 -74.35802,64.0241 -4.61751,2.8041 -8.6947,5.5825 -9.06043,6.1742 -1.68856,2.7322 8.58797,29.3474 18.84738,48.8129 39.78663,75.4883 112.70581,122.8906 194.60853,126.5084 64.7811,2.8615 122.9397,-20.0231 167.8468,-66.0453 6.5157,-6.6775 12.5406,-12.141 13.3887,-12.141 5.3393,0 33.5063,4.3763 34.0734,5.294 0.3801,0.6151 0.6511,14.9191 0.6023,31.7868 l -0.089,30.6686 -7.7421,7.1253 c -57.7575,53.1557 -143.3142,79.9053 -229.12416,71.6365 z m -300.04061,-280.223 c 23.72655,-5.0191 22.08782,-3.1974 21.0308,-23.3793 -3.74679,-71.53841 22.6019,-148.65088 70.58856,-206.58554 20.56756,-24.83137 45.35669,-47.18681 70.48974,-63.56936 6.28633,-4.09763 11.68015,-8.19358 11.98627,-9.1021 0.82304,-2.44268 -4.97443,-27.85373 -9.52739,-41.75979 -8.2861,-25.30813 -22.87331,-52.50916 -38.84161,-72.42866 -34.76784,-43.3708 -78.50245,-68.76329 -137.30857,-79.72193 -11.04161,-2.05763 -21.30512,-2.36352 -80,-2.38431 L 538,524.66667 l -0.34207,250 c -0.18814,137.5 -0.0393,250.79593 0.3307,251.76883 0.5511,1.449 13.51298,1.6653 71.6754,1.1961 70.13424,-0.5658 71.20137,-0.6148 87.2515,-4.0101 z m 104.64884,-48.52135 c 35.24503,-28.33911 60.77004,-74.58272 70.39263,-127.53022 3.3204,-18.27021 4.16868,-37.01735 1.7138,-37.87514 -2.49858,-0.87306 -21.89793,19.44235 -33.46497,35.04521 -25.90307,34.94082 -42.95171,78.91481 -46.39704,119.67302 -1.26985,15.0223 0.0692,16.86746 7.75558,10.68713 z M 1320,1252.8038 v -17.8629 l 17,-0.5641 c 11.0199,-0.3657 17.5194,-0.062 18.4764,0.8629 0.9964,0.963 1.2692,6.9541 0.839,18.427 l -0.6373,17 H 1337.839 1320 Z M 1273.3333,1214 v -19.3333 H 1292.6667 1312 V 1214 v 19.3333 h -19.3333 -19.3334 z m 52.4655,-17.6871 c -1.8059,-1.1528 -2.4548,-57.256 -0.694,-60.0047 0.836,-1.3051 8.2246,-1.6099 32.3228,-1.3334 l 31.2391,0.3585 0.3598,29.1649 c 0.2515,20.3902 -0.098,29.7169 -1.1633,31 -1.21,1.458 -7.5865,1.8309 -31.0265,1.8147 -16.2268,-0.011 -30.1939,-0.4612 -31.0379,-1 z m -95.8626,-61.9985 c -0.3558,-0.9271 -0.487,-18.1771 -0.2915,-38.3333 l 0.3553,-36.6478 38.3333,-0.3537 38.3334,-0.3538 v 37.8538 37.8537 l -4.1667,0.8334 c -2.2917,0.4583 -19.4105,0.8333 -38.0418,0.8333 -26.073,0 -34.0242,-0.3882 -34.522,-1.6856 z m 111.3971,-36.3627 v -14.0483 l 13,0.3817 13,0.3816 0.38,13.6666 0.38,13.6667 h -13.38 -13.38 z M 906,480.1034 c -45.56485,-21.09554 -99.1984,-41.5317 -143.33333,-54.61475 -74.85548,-22.18964 -160.56131,-42.1053 -226.6591,-52.66929 -7.57191,-1.21017 -10.09889,-2.14982 -10.43191,-3.87909 -0.52937,-2.74879 5.84003,-23.05362 8.55543,-27.2736 1.66401,-2.58604 3.07604,-2.99823 10.23298,-2.98717 26.67927,0.0412 97.61958,11.63673 150.96926,24.67654 86.83354,21.224 158.47525,47.12681 222.66667,80.50746 22.11996,11.50276 22.67561,11.89579 23.03763,16.29511 0.431,5.23764 -6.39862,30.78764 -8.37096,31.31624 C 931.93333,491.67139 919.93333,486.55424 906,480.1034 Z m 5.30986,-82.3437 c 1.30292,-12.16641 3.16499,-16.6019 3.25762,-7.7597 0.0926,8.84059 -1.26784,16.66667 -2.89727,16.66667 -0.82742,0 -0.96089,-3.29915 -0.36035,-8.90697 z m -48.19692,-11.24786 c 0.46786,-1.74818 0.85884,-6.92851 0.86885,-11.51184 0.0106,-4.87095 0.5946,-8.33333 1.40547,-8.33333 2.25409,0 1.04063,21.64359 -1.25612,22.40452 -1.39398,0.46183 -1.6527,-0.18849 -1.0182,-2.55935 z m 30.22039,-43.84517 c 0,-7.11111 0.54321,-12 1.33334,-12 0.79012,0 1.33333,4.88889 1.33333,12 0,7.11111 -0.54321,12 -1.33333,12 -0.79013,0 -1.33334,-4.88889 -1.33334,-12 z M 624,321.7834 c 0,-1.42443 7.96855,-13.43078 10.07323,-15.17751 3.49486,-2.90047 2.16195,1.08092 -2.92867,8.74796 C 626.8378,321.8403 624,324.3941 624,321.7834 Z m -22.77379,-10.61168 c 4.13514,-7.31588 10.23085,-14.46224 11.11532,-13.03113 0.79455,1.2856 -10.33806,16.84256 -12.6646,17.6978 -0.75565,0.27777 -0.0585,-1.82223 1.54928,-4.66667 z m -30.55954,0.73518 c 0,-1.79268 7.06245,-12.13562 9.88747,-14.48018 3.53321,-2.93231 2.39228,-0.2494 -3.41399,8.02802 -5.69284,8.11569 -6.47348,8.89376 -6.47348,6.45216 z m 49.3059,-45.87895 c 3.22361,-3.28462 6.15955,-5.67361 6.5243,-5.30885 0.87452,0.87451 -9.31433,11.2809 -11.04508,11.2809 -0.73719,0 1.29716,-2.68742 4.52078,-5.97205 z"
         id="path10" />
      <path
         style="fill:#151515"
         d="m 996.95614,1303.8445 c -53.37539,-5.1433 -108.17505,-27.4591 -156.28947,-63.6449 -16.63929,-12.5141 -44.94529,-40.8133 -57.54677,-57.5329 -19.20753,-25.4846 -35.99413,-55.8738 -45.18089,-81.792 -2.03888,-5.7522 -4.61911,-10.8085 -5.73382,-11.2363 -1.11472,-0.4277 -7.16691,0.2499 -13.44931,1.5058 -32.12145,6.4214 -35.02017,6.5592 -150.61413,7.1577 -90.28464,0.4675 -110.05804,0.2537 -110.97958,-1.1999 -0.61674,-0.9727 -1.13052,-146.7452 -1.14175,-323.93874 -0.018,-284.62846 0.21242,-322.36331 1.9777,-323.82836 3.17104,-2.63174 145.79978,-1.00052 170.66855,1.9519 66.52352,7.89767 151.24959,34.30323 197.99883,61.70791 19.21796,11.2657 30.25566,20.14241 47.9703,38.5786 32.24922,33.56278 56.818,79.14283 68.08304,126.30779 1.38719,5.80795 3.13461,11.17235 3.88315,11.92089 0.92576,0.92576 4.45819,0.63936 11.04617,-0.89559 29.49343,-6.87178 70.23764,-9.21729 99.37274,-5.72057 82.5265,9.90462 149.8771,51.02637 194.6565,118.84994 4.3705,6.61967 9.0055,14.08385 10.2999,16.58707 2.2925,4.43304 2.2823,4.60909 -0.3921,6.77463 -1.5101,1.22283 -8.9346,5.69262 -16.4988,9.93288 -7.5642,4.24025 -20.4604,11.52557 -28.6582,16.1896 -8.1978,4.66403 -15.5324,8.48005 -16.299,8.48005 -0.7665,0 -5.1057,-5.55 -9.6426,-12.33333 -27.4983,-41.11434 -59.4519,-66.6231 -102.0135,-81.4378 -15.6126,-5.43439 -29.4564,-8.22478 -51.6749,-10.41572 -13.7089,-1.35181 -19.2353,-1.25605 -36.7982,0.63767 -20.12979,2.17049 -42.17937,6.52855 -44.43291,8.78209 -0.61521,0.61521 -1.32515,12.13948 -1.57764,25.60949 -0.5249,28.00185 -2.12162,44.03858 -6.77916,68.08648 -9.89052,51.06697 -29.68192,94.8506 -59.24775,131.07112 -18.28766,22.4039 -48.12143,48.0915 -74.35802,64.0241 -4.61751,2.8041 -8.6947,5.5825 -9.06043,6.1742 -1.68856,2.7322 8.58797,29.3474 18.84738,48.8129 39.78663,75.4883 112.70581,122.8906 194.60853,126.5084 64.7811,2.8615 122.9397,-20.0231 167.8468,-66.0453 6.5157,-6.6775 12.5406,-12.141 13.3887,-12.141 5.3393,0 33.5063,4.3763 34.0734,5.294 0.3801,0.6151 0.6511,14.9191 0.6023,31.7868 l -0.089,30.6686 -7.7421,7.1253 c -57.7575,53.1557 -143.3142,79.9053 -229.12416,71.6365 z m -300.04061,-280.223 c 23.72655,-5.0191 22.08782,-3.1974 21.0308,-23.3793 -3.74679,-71.53841 22.6019,-148.65088 70.58856,-206.58554 20.56756,-24.83137 45.35669,-47.18681 70.48974,-63.56936 6.28633,-4.09763 11.68015,-8.19358 11.98627,-9.1021 0.82304,-2.44268 -4.97443,-27.85373 -9.52739,-41.75979 -8.2861,-25.30813 -22.87331,-52.50916 -38.84161,-72.42866 -34.76784,-43.3708 -78.50245,-68.76329 -137.30857,-79.72193 -11.04161,-2.05763 -21.30512,-2.36352 -80,-2.38431 L 538,524.66667 l -0.34207,250 c -0.18814,137.5 -0.0393,250.79593 0.3307,251.76883 0.5511,1.449 13.51298,1.6653 71.6754,1.1961 70.13424,-0.5658 71.20137,-0.6148 87.2515,-4.0101 z m 104.64884,-48.52135 c 35.24503,-28.33911 60.77004,-74.58272 70.39263,-127.53022 3.3204,-18.27021 4.16868,-37.01735 1.7138,-37.87514 -2.49858,-0.87306 -21.89793,19.44235 -33.46497,35.04521 -25.90307,34.94082 -42.95171,78.91481 -46.39704,119.67302 -1.26985,15.0223 0.0692,16.86746 7.75558,10.68713 z M 1320,1252.8038 v -17.8629 l 17,-0.5641 c 11.0199,-0.3657 17.5194,-0.062 18.4764,0.8629 0.9964,0.963 1.2692,6.9541 0.839,18.427 l -0.6373,17 H 1337.839 1320 Z M 1273.3333,1214 v -19.3333 H 1292.6667 1312 V 1214 v 19.3333 h -19.3333 -19.3334 z m 52.4655,-17.6871 c -1.8059,-1.1528 -2.4548,-57.256 -0.694,-60.0047 0.836,-1.3051 8.2246,-1.6099 32.3228,-1.3334 l 31.2391,0.3585 0.3598,29.1649 c 0.2515,20.3902 -0.098,29.7169 -1.1633,31 -1.21,1.458 -7.5865,1.8309 -31.0265,1.8147 -16.2268,-0.011 -30.1939,-0.4612 -31.0379,-1 z m -95.8626,-61.9985 c -0.3558,-0.9271 -0.487,-18.1771 -0.2915,-38.3333 l 0.3553,-36.6478 38.3333,-0.3537 38.3334,-0.3538 v 37.8538 37.8537 l -4.1667,0.8334 c -2.2917,0.4583 -19.4105,0.8333 -38.0418,0.8333 -26.073,0 -34.0242,-0.3882 -34.522,-1.6856 z m 111.3971,-36.3627 v -14.0483 l 13,0.3817 13,0.3816 0.38,13.6666 0.38,13.6667 h -13.38 -13.38 z M 912.30934,398.66667 c 0,-2.56667 0.27439,-3.61667 0.60976,-2.33334 0.33537,1.28334 0.33537,3.38334 0,4.66667 -0.33537,1.28333 -0.60976,0.23333 -0.60976,-2.33333 z m -286.92698,-78 c -0.0197,-0.73334 1.49296,-3.13334 3.36141,-5.33334 1.86846,-2.2 2.80944,-2.8 2.09108,-1.33333 -1.93331,3.9472 -5.41135,8.19973 -5.45249,6.66667 z"
         id="path9" />
    </g>
  </g>
</svg>
